<?xml version="1.0"?>
<svg xmlns="http://www.w3.org/2000/svg" viewBox="0 0 26 26" enable-background="new 0 0 26 26">
    <path d="M 6 1 C 3.2545455 1 1 3.2545455 1 6 L 1 20 C 1 22.745455 3.2545455 25 6 25 L 20 25 C 22.745455 25 25 22.745455 25 20 L 25 6 C 25 3.2545455 22.745455 1 20 1 L 6 1 z M 6 3 L 20 3 C 21.654545 3 23 4.3454545 23 6 L 23 20 C 23 21.654545 21.654545 23 20 23 L 6 23 C 4.3454545 23 3 21.654545 3 20 L 3 6 C 3 4.3454545 4.3454545 3 6 3 z M 17.1875 7.0625 C 17.0375 7.0875 16.9125 7.1625 16.8125 7.3125 L 11.90625 14.59375 L 9.59375 12.3125 C 9.39375 12.0125 9.0125 11.9875 8.8125 12.1875 L 7.90625 13.09375 C 7.70625 13.39375 7.70625 13.8 7.90625 14 L 11.40625 17.5 C 11.60625 17.6 11.8875 17.8125 12.1875 17.8125 C 12.3875 17.8125 12.70625 17.70625 12.90625 17.40625 L 18.90625 8.59375 C 19.10625 8.29375 18.99375 8.0125 18.59375 7.8125 L 17.59375 7.09375 C 17.49375 7.04375 17.3375 7.0375 17.1875 7.0625 z"/>
</svg>
